<svg xmlns="http://www.w3.org/2000/svg" viewBox="0 0 980 120" role="img" aria-label="Discover, capture, brief, plan, execute">
<g transform="rotate(0.13 138.0 57.0)">
  <rect x="64.0" y="28.0" width="148.0" height="58.0" rx="18.0" fill="#0F162F" stroke="#D2A657" stroke-width="2.3" stroke-linejoin="round"/>
</g>
<g transform="rotate(-0.17 138.0 57.0)" opacity="0.55">
  <rect x="63.8" y="28.2" width="149.3" height="59.3" rx="18.6" fill="none" stroke="#D2A657" stroke-width="1.15" stroke-linejoin="round"/>
</g>
<text x="138.0" y="62.0" text-anchor="middle" fill="#FFFCEB" font-family="ui-rounded, 'Trebuchet MS', 'Segoe UI', system-ui, sans-serif" font-size="16" font-weight="600" transform="rotate(-0.41 138.0 57.0)">Discover</text>
<g transform="rotate(-0.09 314.0 57.0)">
  <rect x="240.0" y="28.0" width="148.0" height="58.0" rx="18.0" fill="#2A62C6" stroke="#2A62C6" stroke-width="2.3" stroke-linejoin="round"/>
</g>
<g transform="rotate(-0.12 314.0 57.0)" opacity="0.55">
  <rect x="240.2" y="28.9" width="148.0" height="58.3" rx="16.7" fill="none" stroke="#2A62C6" stroke-width="1.15" stroke-linejoin="round"/>
</g>
<text x="314.0" y="62.0" text-anchor="middle" fill="#FFFCEB" font-family="ui-rounded, 'Trebuchet MS', 'Segoe UI', system-ui, sans-serif" font-size="16" font-weight="600" transform="rotate(0.01 314.0 57.0)">Capture</text>
<path d="M 214.0 58.5 Q 224.4 52.3 238.0 57.0" fill="none" stroke="#D2A657" stroke-width="2.2" stroke-linecap="round"/>
<path d="M 214.0 59.3 Q 224.4 53.4 238.0 57.0" fill="none" stroke="#D2A657" stroke-width="1" opacity="0.4" stroke-linecap="round"/>
<path d="M 227.4 60.1 L 238.0 57.0 L 231.6 48.1" fill="none" stroke="#D2A657" stroke-width="2.2" stroke-linecap="round" stroke-linejoin="round"/>
<g transform="rotate(-0.05 490.0 57.0)">
  <rect x="416.0" y="28.0" width="148.0" height="58.0" rx="18.0" fill="#0F162F" stroke="#D2A657" stroke-width="2.3" stroke-linejoin="round"/>
</g>
<g transform="rotate(-0.40 490.0 57.0)" opacity="0.55">
  <rect x="416.4" y="28.4" width="146.0" height="57.5" rx="17.1" fill="none" stroke="#D2A657" stroke-width="1.15" stroke-linejoin="round"/>
</g>
<text x="490.0" y="62.0" text-anchor="middle" fill="#FFFCEB" font-family="ui-rounded, 'Trebuchet MS', 'Segoe UI', system-ui, sans-serif" font-size="16" font-weight="600" transform="rotate(0.37 490.0 57.0)">Brief</text>
<path d="M 390.0 57.0 Q 399.2 54.6 414.0 57.0" fill="none" stroke="#D2A657" stroke-width="2.2" stroke-linecap="round"/>
<path d="M 390.0 57.8 Q 399.2 55.7 414.0 57.0" fill="none" stroke="#D2A657" stroke-width="1" opacity="0.4" stroke-linecap="round"/>
<path d="M 403.6 60.7 L 414.0 57.0 L 405.4 50.2" fill="none" stroke="#D2A657" stroke-width="2.2" stroke-linecap="round" stroke-linejoin="round"/>
<g transform="rotate(-0.43 666.0 57.0)">
  <rect x="592.0" y="28.0" width="148.0" height="58.0" rx="18.0" fill="#0F162F" stroke="#D2A657" stroke-width="2.3" stroke-linejoin="round"/>
</g>
<g transform="rotate(-0.08 666.0 57.0)" opacity="0.55">
  <rect x="592.5" y="28.4" width="146.7" height="56.9" rx="16.6" fill="none" stroke="#D2A657" stroke-width="1.15" stroke-linejoin="round"/>
</g>
<text x="666.0" y="62.0" text-anchor="middle" fill="#FFFCEB" font-family="ui-rounded, 'Trebuchet MS', 'Segoe UI', system-ui, sans-serif" font-size="16" font-weight="600" transform="rotate(-0.33 666.0 57.0)">Plan</text>
<path d="M 566.0 58.5 Q 579.2 49.4 590.0 57.0" fill="none" stroke="#D2A657" stroke-width="2.2" stroke-linecap="round"/>
<path d="M 566.0 59.3 Q 579.2 50.5 590.0 57.0" fill="none" stroke="#D2A657" stroke-width="1" opacity="0.4" stroke-linecap="round"/>
<path d="M 579.0 56.2 L 590.0 57.0 L 585.6 46.9" fill="none" stroke="#D2A657" stroke-width="2.2" stroke-linecap="round" stroke-linejoin="round"/>
<g transform="rotate(-0.71 842.0 57.0)">
  <rect x="768.0" y="28.0" width="148.0" height="58.0" rx="18.0" fill="#D2A657" stroke="#D2A657" stroke-width="2.3" stroke-linejoin="round"/>
</g>
<g transform="rotate(-0.27 842.0 57.0)" opacity="0.55">
  <rect x="768.6" y="28.3" width="147.1" height="57.0" rx="18.9" fill="none" stroke="#D2A657" stroke-width="1.15" stroke-linejoin="round"/>
</g>
<text x="842.0" y="62.0" text-anchor="middle" fill="#0F162F" font-family="ui-rounded, 'Trebuchet MS', 'Segoe UI', system-ui, sans-serif" font-size="16" font-weight="600" transform="rotate(0.19 842.0 57.0)">Execute</text>
<path d="M 742.0 57.0 Q 754.3 58.0 766.0 57.0" fill="none" stroke="#D2A657" stroke-width="2.2" stroke-linecap="round"/>
<path d="M 742.0 57.8 Q 754.3 59.1 766.0 57.0" fill="none" stroke="#D2A657" stroke-width="1" opacity="0.4" stroke-linecap="round"/>
<path d="M 756.8 63.1 L 766.0 57.0 L 755.9 52.6" fill="none" stroke="#D2A657" stroke-width="2.2" stroke-linecap="round" stroke-linejoin="round"/>
</svg>
